# xmcd CD database file
#
# Track frame offsets:
#	150
#	16686
#	31189
#	42466
#	63927
#	78377
#	93223
#	112960
#	126420
#	144935
#	158860
#	177188
#
# Disc length: 2523 seconds
#
# Revision: 0
# Processed by: cddbd v1.5.1PL0 Copyright (c) Steve Scherf et al.
# Submitted via: CDex 1.50
#
DISCID=8d09d90c
DTITLE=Brian Letton - My Heart's Still In The Bush
DYEAR=1900
DGENRE=Country
TTITLE0=Brian Letton =The Digger And His Dog
TTITLE1=Brian Letton =Do You Really Know The Bush
TTITLE2=Brian Letton =Give It A Go
TTITLE3=Brian Letton =A Dream Ago
TTITLE4=Brian Letton =Lassiter's Reef Of Gold
TTITLE5=Brian Letton =My Heart's Still In The Bush
TTITLE6=Brian Letton =The Shearer's Cook
TTITLE7=Brian Letton =This Land Australia
TTITLE8=Brian Letton =Waltz On
TTITLE9=Brian Letton =The Old Rocking Chair
TTITLE10=Brian Letton =When The Wattle Blooms
TTITLE11=Brian Letton =When Dad Played The Piano
EXTD=
EXTT0=
EXTT1=
EXTT2=
EXTT3=
EXTT4=
EXTT5=
EXTT6=
EXTT7=
EXTT8=
EXTT9=
EXTT10=
EXTT11=
PLAYORDER=
